# xmcd
#
# Track frame offsets:
#	150
#	18162
#	19581
#	38735
#	42665
#	58744
#	84202
#	102516
#	124759
#	145616
#	163753
#	181576
#	200876
#	224180
#	228052
#	245512
#	265876
#
# Disc length: 3837 seconds
#
# Revision: 1
# Processed by: cddbd v1.5.1PL0 Copyright (c) Steve Scherf et al.
# Submitted via: EasyCDDAExtractor 6.0.0.1
#
DISCID=ea0efb11
DTITLE=TLC - FanMail
DYEAR=1999
DGENRE=R&B
TTITLE0=FanMail
TTITLE1=The Vic-E Interpretation - Interlude
TTITLE2=Silly Ho
TTITLE3=Whispering Playa - Interlude
TTITLE4=No Scrubs
TTITLE5=I'm Good At Being Bad
TTITLE6=If They Knew
TTITLE7=I Miss You So Much
TTITLE8=Unpretty
TTITLE9=My Life
TTITLE10=Shout
TTITLE11=Come On Down
TTITLE12=Dear Lie
TTITLE13=Cmmunicate - Interlude
TTITLE14=Lovesick
TTITLE15=Automatic
TTITLE16=Don't Pull Out On Me Yet
EXTD=
EXTT0=
EXTT1=
EXTT2=
EXTT3=
EXTT4=
EXTT5=
EXTT6=
EXTT7=
EXTT8=
EXTT9=
EXTT10=
EXTT11=
EXTT12=
EXTT13=
EXTT14=
EXTT15=
EXTT16=
PLAYORDER=
